<svg width="328" height="229" viewBox="0 0 328 229" fill="none" xmlns="http://www.w3.org/2000/svg">
<path fill-rule="evenodd" clip-rule="evenodd" d="M32.5484 1.30746C24.2956 0.585436 17.0202 6.6903 16.2981 14.943L10.4587 81.6881C20.9122 82.6026 28.645 91.8183 27.7304 102.272C26.8159 112.725 17.6003 120.458 7.14678 119.543L1.30735 186.289C0.585324 194.541 6.69017 201.817 14.9429 202.539L294.874 227.03C303.126 227.752 310.402 221.647 311.124 213.394L316.963 146.649C306.51 145.734 298.777 136.519 299.692 126.065C300.606 115.612 309.822 107.879 320.275 108.794L326.115 42.0485C326.837 33.7957 320.732 26.5202 312.479 25.7982L32.5484 1.30746Z" fill="white"/>
<circle cx="112.096" cy="29.2372" r="1.8904" transform="rotate(5 112.096 29.2372)" fill="#1D625E"/>
<circle cx="111.025" cy="41.478" r="1.8904" transform="rotate(5 111.025 41.478)" fill="#1D625E"/>
<circle cx="109.954" cy="53.7189" r="1.8904" transform="rotate(5 109.954 53.7189)" fill="#1D625E"/>
<circle cx="108.883" cy="65.9597" r="1.8904" transform="rotate(5 108.883 65.9597)" fill="#1D625E"/>
<circle cx="107.812" cy="78.2006" r="1.8904" transform="rotate(5 107.812 78.2006)" fill="#1D625E"/>
<circle cx="106.742" cy="90.4415" r="1.8904" transform="rotate(5 106.742 90.4415)" fill="#1D625E"/>
<circle cx="105.671" cy="102.682" r="1.8904" transform="rotate(5 105.671 102.682)" fill="#1D625E"/>
<circle cx="104.6" cy="114.923" r="1.8904" transform="rotate(5 104.6 114.923)" fill="#1D625E"/>
<circle cx="103.529" cy="127.164" r="1.8904" transform="rotate(5 103.529 127.164)" fill="#1D625E"/>
<circle cx="102.458" cy="139.405" r="1.8904" transform="rotate(5 102.458 139.405)" fill="#1D625E"/>
<circle cx="101.387" cy="151.646" r="1.8904" transform="rotate(5 101.387 151.646)" fill="#1D625E"/>
<circle cx="100.316" cy="163.887" r="1.8904" transform="rotate(5 100.316 163.887)" fill="#1D625E"/>
<circle cx="99.2449" cy="176.128" r="1.8904" transform="rotate(5 99.2449 176.128)" fill="#1D625E"/>
<circle cx="98.174" cy="188.368" r="1.8904" transform="rotate(5 98.174 188.368)" fill="#1D625E"/>
<path d="M65.0828 157.229L47.1214 155.657L46.7475 159.931L43.7096 157.135L44.1515 152.085L65.3704 153.941L65.0828 157.229ZM66.717 141.992C66.3248 146.475 62.6679 149.377 57.8862 148.959L52.3274 148.472C47.5457 148.054 44.4483 144.561 44.8405 140.078C45.2354 135.565 48.8922 132.663 53.674 133.081L59.2327 133.568C64.0145 133.986 67.1118 137.479 66.717 141.992ZM63.4893 141.71C63.7194 139.08 62.0532 137.127 58.9451 136.855L53.3863 136.369C50.2782 136.097 48.2983 137.73 48.0682 140.36C47.8407 142.96 49.5069 144.913 52.615 145.185L58.1738 145.671C61.2819 145.943 63.2618 144.31 63.4893 141.71ZM68.9691 116.25C68.5769 120.733 64.92 123.636 60.1383 123.217L54.5795 122.731C49.7978 122.313 46.7004 118.819 47.0926 114.336C47.4874 109.824 51.1443 106.921 55.926 107.34L61.4848 107.826C66.2666 108.244 69.3639 111.738 68.9691 116.25ZM65.7414 115.968C65.9715 113.338 64.3053 111.385 61.1972 111.114L55.6384 110.627C52.5303 110.355 50.5504 111.989 50.3203 114.619C50.0928 117.219 51.759 119.172 54.8671 119.444L60.4259 119.93C63.534 120.202 65.5139 118.568 65.7414 115.968ZM70.6058 97.5426C70.2136 102.025 66.5567 104.928 61.775 104.509L56.2162 104.023C51.4345 103.605 48.3372 100.112 48.7294 95.6286C49.1242 91.1159 52.781 88.2136 57.5628 88.6319L63.1215 89.1182C67.9033 89.5366 71.0006 93.0298 70.6058 97.5426ZM67.3781 97.2602C67.6082 94.6302 65.9421 92.6776 62.8339 92.4057L57.2752 91.9193C54.167 91.6474 52.1871 93.2811 51.957 95.911C51.7295 98.5111 53.3957 100.464 56.5038 100.736L62.0626 101.222C65.1707 101.494 67.1506 99.8603 67.3781 97.2602ZM72.2425 78.8348C71.8503 83.3176 68.1934 86.22 63.4117 85.8016L57.8529 85.3153C53.0712 84.8969 49.9739 81.4037 50.3661 76.9208C50.7609 72.4081 54.4178 69.5057 59.1995 69.9241L64.7583 70.4104C69.54 70.8287 72.6373 74.322 72.2425 78.8348ZM69.0148 78.5524C69.2449 75.9224 67.5788 73.9698 64.4706 73.6978L58.9119 73.2115C55.8038 72.9396 53.8238 74.5732 53.5937 77.2032C53.3663 79.8033 55.0324 81.7559 58.1406 82.0278L63.6993 82.5142C66.8074 82.7861 68.7874 81.1524 69.0148 78.5524ZM65.0402 65.4669L61.8723 65.1897L62.0972 62.6195L52.0555 61.741L52.602 55.4949C52.9785 51.1913 55.892 48.5251 59.8369 48.8702C63.7818 49.2153 66.188 52.347 65.8115 56.6505L65.5527 59.6092L67.7941 59.8053L68.2804 54.2466L69.954 54.393L69.4677 59.9518L73.5621 60.31L73.2745 63.5974L69.1801 63.2392L68.9552 65.8094L67.2816 65.663L67.5065 63.0928L65.2651 62.8967L65.0402 65.4669ZM62.3848 59.3321L62.6384 56.4332C62.8502 54.0124 61.688 52.4953 59.5362 52.3071C57.3844 52.1188 56.0063 53.4136 55.7945 55.8344L55.5409 58.7333L62.3848 59.3321Z" fill="#FF335F"/>
<path d="M143.432 77.9167L144.129 69.9471L145.883 70.1005L145.606 73.2565L149.448 73.5925L149.724 70.4366L151.477 70.59L150.78 78.5595L149.027 78.4061L149.311 75.1546L145.47 74.8185L145.185 78.0701L143.432 77.9167ZM156.398 79.2117C154.215 79.0207 152.72 77.0108 152.92 74.7315C153.119 72.4522 154.94 70.7323 157.124 70.9234C158.271 71.0238 159.176 71.6972 159.566 72.3738L159.66 71.3059L161.413 71.4593L160.716 79.4288L158.963 79.2754L159.056 78.2075C158.554 78.806 157.546 79.3121 156.398 79.2117ZM156.857 77.6457C158.259 77.7684 159.329 76.7377 159.455 75.3032C159.58 73.8687 158.706 72.6679 157.303 72.5452C155.9 72.4225 154.83 73.4531 154.705 74.8877C154.579 76.3222 155.454 77.523 156.857 77.6457ZM166.843 79.9648L167.54 71.9953L169.293 72.1487L169.017 75.3046L172.858 75.6407L173.134 72.4848L174.888 72.6381L174.19 80.6077L172.437 80.4543L172.722 77.2027L168.88 76.8667L168.596 80.1182L166.843 79.9648ZM179.809 81.2599C177.625 81.0688 176.131 79.0589 176.33 76.7796C176.53 74.5003 178.35 72.7805 180.534 72.9715C181.682 73.0719 182.587 73.7454 182.977 74.422L183.07 73.354L184.824 73.5074L184.127 81.477L182.373 81.3236L182.467 80.2557C181.965 80.8542 180.957 81.3603 179.809 81.2599ZM180.267 79.6938C181.67 79.8166 182.74 78.7859 182.865 77.3514C182.991 75.9169 182.116 74.716 180.713 74.5933C179.311 74.4706 178.241 75.5013 178.115 76.9358C177.99 78.3703 178.865 79.5711 180.267 79.6938ZM194.866 74.386L189.917 83.2203C189.078 84.7369 188.173 85.3484 186.77 85.2257C186.34 85.188 186.07 85.1484 185.805 85.0609L185.937 83.5467C186.175 83.5836 186.381 83.6176 186.716 83.6469C187.274 83.6957 187.744 83.4638 188.252 82.6089L188.88 81.4913L186.099 73.619L188.028 73.7878L190.046 79.5376L192.921 74.2159L194.866 74.386ZM195.39 82.4624L196.087 74.4928L197.84 74.6462L197.28 81.0538L200.053 81.2964L200.614 74.8889L202.367 75.0423L201.806 81.4498L204.564 81.691L205.124 75.2835L206.878 75.4369L206.181 83.4065L195.39 82.4624ZM208.543 83.6131L209.24 75.6436L210.993 75.797L210.717 78.9529L214.558 79.289L214.835 76.133L216.588 76.2864L215.891 84.256L214.137 84.1026L214.422 80.851L210.58 80.5149L210.296 83.7665L208.543 83.6131ZM219.818 84.5996L218.256 84.4629L218.953 76.4933L220.706 76.6467L220.242 81.9545L224.771 77.0023L226.333 77.139L225.635 85.1085L223.882 84.9551L224.346 79.6474L219.818 84.5996ZM233.291 85.7784L230.05 82.0737L229.753 85.4688L228 85.3154L228.697 77.3458L230.45 77.4992L230.152 80.9102L233.59 77.7739L235.726 77.9608L231.765 81.5653L235.603 85.9806L233.291 85.7784ZM238.123 86.201L236.561 86.0644L237.258 78.0948L239.011 78.2482L238.547 83.5559L243.076 78.6038L244.638 78.7405L243.94 86.71L242.187 86.5566L242.651 81.2489L238.123 86.201ZM143.251 97.9772L141.689 97.8406L142.386 89.871L144.139 90.0244L143.675 95.3321L148.204 90.38L149.766 90.5167L149.069 98.4862L147.315 98.3328L147.78 93.0251L143.251 97.9772ZM151.422 98.8206C151.055 98.7885 150.77 98.7475 150.567 98.6815L150.699 97.1673C150.873 97.1986 151.047 97.2299 151.222 97.2452C151.844 97.2996 152.222 97.0115 152.324 95.8479L152.768 90.7793L159.255 91.3468L158.558 99.3164L156.804 99.163L157.365 92.7555L154.384 92.4947L154.054 96.2723C153.887 98.185 152.713 98.9335 151.422 98.8206ZM162.474 99.6591L160.912 99.5224L161.61 91.5529L163.363 91.7062L162.898 97.014L167.427 92.0618L168.989 92.1985L168.292 100.168L166.539 100.015L167.003 94.7069L162.474 99.6591ZM179.699 101.166L176.458 97.4615L176.161 100.856L174.408 100.703L175.105 92.7335L176.858 92.8869L176.56 96.2979L179.998 93.1616L182.134 93.3485L178.173 96.953L182.011 101.368L179.699 101.166ZM186.09 101.886C183.731 101.679 182.074 99.6874 182.277 97.3763C182.479 95.0651 184.456 93.3911 186.815 93.5974C189.174 93.8038 190.831 95.7958 190.629 98.107C190.426 100.418 188.449 102.092 186.09 101.886ZM186.232 100.26C187.635 100.383 188.719 99.3694 188.843 97.9508C188.968 96.5322 188.076 95.3459 186.673 95.2232C185.254 95.0991 184.17 96.1125 184.046 97.531C183.922 98.9496 184.814 100.136 186.232 100.26ZM191.892 102.361C191.526 102.329 191.24 102.288 191.037 102.222L191.169 100.708C191.343 100.739 191.517 100.771 191.693 100.786C192.314 100.84 192.693 100.552 192.795 99.3886L193.238 94.32L199.725 94.8875L199.028 102.857L197.275 102.704L197.835 96.2962L194.855 96.0354L194.524 99.813C194.357 101.726 193.183 102.474 191.892 102.361ZM204.971 103.538C202.612 103.331 200.955 101.339 201.158 99.0281C201.36 96.717 203.337 95.0429 205.696 95.2493C208.055 95.4557 209.712 97.4477 209.51 99.7588C209.307 102.07 207.33 103.744 204.971 103.538ZM205.113 101.912C206.516 102.035 207.6 101.021 207.724 99.6027C207.849 98.1841 206.957 96.9978 205.554 96.8751C204.135 96.751 203.051 97.7643 202.927 99.1829C202.803 100.601 203.695 101.788 205.113 101.912ZM210.924 103.898L211.622 95.9283L213.375 96.0817L213.099 99.2377L216.94 99.5738L217.216 96.4178L218.97 96.5712L218.272 104.541L216.519 104.387L216.803 101.136L212.962 100.8L212.678 104.051L210.924 103.898ZM225.929 105.211L222.688 101.506L222.391 104.901L220.637 104.748L221.335 96.7781L223.088 96.9315L222.789 100.342L226.228 97.2062L228.364 97.3931L224.402 100.998L228.24 105.413L225.929 105.211ZM237.562 98.1979L232.614 107.032C231.774 108.549 230.869 109.16 229.467 109.038C229.036 109 228.767 108.96 228.501 108.873L228.634 107.359C228.872 107.395 229.077 107.429 229.412 107.459C229.97 107.508 230.44 107.276 230.948 106.421L231.576 105.303L228.796 97.4309L230.724 97.5996L232.743 103.349L235.618 98.0277L237.562 98.1979ZM239.43 105.99L237.485 108.583L236.401 108.488L237.706 106.241C237.292 106.012 236.983 105.503 237.035 104.913C237.1 104.164 237.762 103.58 238.527 103.647C239.292 103.714 239.842 104.404 239.776 105.153C239.748 105.472 239.628 105.751 239.43 105.99ZM248.864 107.378C246.489 107.17 244.937 105.267 245.146 102.877C245.353 100.518 247.134 98.8747 249.605 99.0908C252.044 99.3042 253.602 101.32 253.19 104.014L246.846 103.459C246.788 104.675 247.66 105.715 249.063 105.837C249.956 105.915 250.735 105.63 251.169 104.897L253.002 105.058C252.41 106.5 250.904 107.556 248.864 107.378ZM249.429 100.553C248.329 100.457 247.349 101.014 247.002 102.22L251.418 102.606C251.26 101.291 250.401 100.638 249.429 100.553ZM258.267 108.2C255.845 107.989 254.253 105.986 254.454 103.691C254.655 101.396 256.57 99.7002 258.993 99.9121C261.097 100.096 262.512 101.537 262.772 103.343L260.923 103.181C260.681 102.276 259.953 101.602 258.853 101.506C257.435 101.382 256.369 102.365 256.239 103.847C256.109 105.329 256.988 106.482 258.407 106.607C259.507 106.703 260.341 106.165 260.736 105.317L262.585 105.478C262.016 107.211 260.371 108.385 258.267 108.2ZM263.898 108.661C263.532 108.629 263.246 108.588 263.043 108.522L263.176 107.008C263.35 107.039 263.524 107.07 263.699 107.086C264.321 107.14 264.699 106.852 264.801 105.688L265.244 100.62L271.732 101.187L271.034 109.157L269.281 109.003L269.842 102.596L266.861 102.335L266.53 106.113C266.363 108.025 265.189 108.774 263.898 108.661ZM274.951 109.499L273.389 109.363L274.086 101.393L275.839 101.547L275.375 106.854L279.904 101.902L281.466 102.039L280.769 110.008L279.015 109.855L279.48 104.547L274.951 109.499ZM143.534 118.239C141.111 118.027 139.52 116.025 139.721 113.729C139.921 111.434 141.836 109.739 144.259 109.951C146.363 110.135 147.779 111.576 148.039 113.381L146.19 113.219C145.948 112.315 145.22 111.641 144.12 111.545C142.701 111.42 141.635 112.403 141.506 113.886C141.376 115.368 142.255 116.521 143.673 116.645C144.773 116.741 145.607 116.204 146.003 115.355L147.852 115.517C147.283 117.25 145.638 118.423 143.534 118.239ZM148.674 116.954L148.881 116.972C149.503 117.027 150.055 116.593 150.218 114.728L150.574 110.664L157.14 111.238L156.58 117.646L157.823 117.755L157.512 121.309L155.918 121.17L156.093 119.177L150.147 118.657L149.973 120.649L148.363 120.509L148.674 116.954ZM152.19 112.379L151.956 115.057C151.857 116.189 151.63 116.763 151.304 117.184L154.827 117.492L155.251 112.647L152.19 112.379ZM162.74 119.919C160.365 119.712 158.813 117.809 159.022 115.418C159.229 113.059 161.011 111.416 163.481 111.632C165.92 111.846 167.478 113.861 167.066 116.556L160.722 116.001C160.664 117.216 161.536 118.256 162.939 118.379C163.832 118.457 164.611 118.172 165.045 117.439L166.878 117.599C166.286 119.041 164.78 120.098 162.74 119.919ZM163.305 113.095C162.205 112.998 161.225 113.555 160.879 114.761L165.294 115.148C165.136 113.833 164.277 113.18 163.305 113.095ZM168.435 120.385C168.068 120.353 167.783 120.312 167.58 120.246L167.712 118.732C167.886 118.763 168.06 118.795 168.236 118.81C168.857 118.864 169.236 118.576 169.338 117.413L169.781 112.344L176.268 112.912L175.571 120.881L173.818 120.728L174.378 114.32L171.398 114.06L171.067 117.837C170.9 119.75 169.726 120.498 168.435 120.385ZM181.179 121.533C178.996 121.341 177.501 119.332 177.7 117.052C177.9 114.773 179.721 113.053 181.904 113.244C183.052 113.345 183.957 114.018 184.347 114.695L184.441 113.627L186.194 113.78L185.497 121.75L183.743 121.596L183.837 120.528C183.335 121.127 182.327 121.633 181.179 121.533ZM181.637 119.967C183.04 120.089 184.11 119.059 184.236 117.624C184.361 116.19 183.486 114.989 182.084 114.866C180.681 114.743 179.611 115.774 179.486 117.208C179.36 118.643 180.235 119.844 181.637 119.967ZM191.381 122.425C189.006 122.217 187.454 120.315 187.663 117.924C187.869 115.565 189.651 113.922 192.122 114.138C194.56 114.351 196.119 116.367 195.706 119.061L189.363 118.506C189.304 119.722 190.177 120.762 191.58 120.885C192.472 120.963 193.252 120.678 193.686 119.945L195.519 120.105C194.927 121.547 193.421 122.604 191.381 122.425ZM191.946 115.6C190.846 115.504 189.866 116.061 189.519 117.267L193.934 117.653C193.776 116.339 192.918 115.685 191.946 115.6ZM198.507 122.888L199.068 116.48L196.677 116.271L196.813 114.709L203.46 115.291L203.323 116.853L200.821 116.634L200.26 123.041L198.507 122.888ZM207.522 123.837C205.147 123.629 203.595 121.727 203.804 119.336C204.011 116.977 205.793 115.334 208.263 115.55C210.702 115.764 212.26 117.779 211.848 120.473L205.504 119.918C205.446 121.134 206.318 122.174 207.721 122.297C208.614 122.375 209.394 122.09 209.827 121.357L211.66 121.517C211.068 122.959 209.562 124.016 207.522 123.837ZM208.087 117.013C206.987 116.916 206.007 117.473 205.661 118.679L210.076 119.066C209.918 117.751 209.059 117.098 208.087 117.013ZM216.54 122.892L216.747 122.91C217.369 122.964 217.921 122.531 218.084 120.666L218.439 116.601L225.006 117.176L224.446 123.583L225.689 123.692L225.378 127.246L223.784 127.107L223.958 125.115L218.013 124.594L217.839 126.587L216.229 126.446L216.54 122.892ZM220.056 118.317L219.822 120.994C219.723 122.126 219.496 122.7 219.17 123.122L222.692 123.43L223.116 118.584L220.056 118.317ZM227.253 125.403L227.95 117.433L231.584 117.751C233.497 117.919 234.329 119.051 234.222 120.279C234.172 120.853 233.907 121.311 233.442 121.672C234.156 122.136 234.509 122.874 234.441 123.655C234.335 124.866 233.421 125.943 231.349 125.761L227.253 125.403ZM229.136 124.074L231.463 124.278C232.148 124.337 232.641 124.027 232.697 123.39C232.754 122.736 232.323 122.345 231.637 122.285L229.31 122.082L229.136 124.074ZM229.422 120.806L231.366 120.977C231.86 121.02 232.406 120.843 232.466 120.157C232.526 119.472 232.018 119.219 231.524 119.175L229.579 119.005L229.422 120.806ZM239.27 126.615C237.086 126.424 235.592 124.414 235.791 122.135C235.99 119.855 237.811 118.135 239.995 118.326C241.143 118.427 242.047 119.1 242.438 119.777L242.531 118.709L244.285 118.862L243.587 126.832L241.834 126.679L241.927 125.611C241.425 126.209 240.417 126.715 239.27 126.615ZM239.728 125.049C241.131 125.172 242.201 124.141 242.326 122.706C242.452 121.272 241.577 120.071 240.174 119.948C238.772 119.826 237.702 120.856 237.576 122.291C237.451 123.725 238.325 124.926 239.728 125.049ZM140.946 138.089C139.336 137.948 137.874 137.033 137.688 135.314L139.489 135.472C139.668 136.178 140.244 136.566 141.073 136.639C142.095 136.712 142.63 136.277 142.685 135.655C142.745 134.97 142.268 134.543 141.376 134.465L140.435 134.382L140.548 133.091L141.457 133.171C142.174 133.234 142.68 132.957 142.737 132.303C142.792 131.681 142.33 131.272 141.517 131.201C140.768 131.135 140.179 131.437 139.933 132.042L138.18 131.888C138.663 130.228 140.189 129.671 141.671 129.801C143.68 129.976 144.522 131.174 144.422 132.322C144.362 133.007 144.071 133.576 143.415 133.92C144.131 134.368 144.521 135.045 144.443 135.938C144.336 137.165 143.13 138.28 140.946 138.089ZM149.317 138.821C147.133 138.63 145.639 136.62 145.838 134.341C146.037 132.062 147.858 130.342 150.042 130.533C151.19 130.633 152.094 131.307 152.485 131.983L152.578 130.916L154.332 131.069L153.634 139.038L151.881 138.885L151.974 137.817C151.472 138.416 150.464 138.922 149.317 138.821ZM149.775 137.255C151.178 137.378 152.248 136.347 152.373 134.913C152.499 133.478 151.624 132.278 150.221 132.155C148.819 132.032 147.749 133.063 147.623 134.497C147.498 135.932 148.372 137.133 149.775 137.255ZM161.301 139.709L158.06 136.005L157.763 139.4L156.01 139.246L156.707 131.277L158.46 131.43L158.162 134.841L161.6 131.705L163.736 131.892L159.775 135.496L163.613 139.911L161.301 139.709ZM167.388 140.402C165.205 140.211 163.71 138.201 163.91 135.922C164.109 133.643 165.93 131.923 168.114 132.114C169.261 132.214 170.166 132.888 170.556 133.564L170.65 132.497L172.403 132.65L171.706 140.62L169.953 140.466L170.046 139.398C169.544 139.997 168.536 140.503 167.388 140.402ZM167.847 138.836C169.249 138.959 170.319 137.928 170.445 136.494C170.57 135.059 169.696 133.859 168.293 133.736C166.89 133.613 165.82 134.644 165.695 136.078C165.569 137.513 166.444 138.714 167.847 138.836ZM176.825 141.228C175.215 141.087 173.753 140.172 173.566 138.453L175.367 138.611C175.546 139.317 176.123 139.705 176.952 139.778C177.973 139.851 178.509 139.416 178.563 138.794C178.623 138.109 178.147 137.682 177.254 137.604L176.314 137.521L176.427 136.23L177.335 136.31C178.053 136.373 178.559 136.096 178.616 135.442C178.67 134.82 178.208 134.411 177.395 134.339C176.646 134.274 176.058 134.576 175.812 135.181L174.059 135.027C174.541 133.367 176.068 132.81 177.55 132.94C179.558 133.115 180.401 134.313 180.301 135.461C180.241 136.146 179.95 136.715 179.293 137.059C180.009 137.507 180.4 138.184 180.322 139.077C180.214 140.304 179.008 141.419 176.825 141.228ZM185.195 141.96C183.012 141.769 181.517 139.759 181.717 137.48C181.916 135.201 183.737 133.481 185.921 133.672C187.068 133.772 187.973 134.446 188.363 135.122L188.457 134.054L190.21 134.208L189.513 142.177L187.76 142.024L187.853 140.956C187.351 141.555 186.343 142.061 185.195 141.96ZM185.654 140.394C187.056 140.517 188.126 139.486 188.252 138.052C188.377 136.617 187.502 135.416 186.1 135.294C184.697 135.171 183.627 136.202 183.502 137.636C183.376 139.071 184.251 140.272 185.654 140.394ZM195.639 142.713L196.337 134.744L198.09 134.897L197.814 138.053L201.655 138.389L201.931 135.233L203.685 135.387L202.987 143.356L201.234 143.203L201.519 139.951L197.677 139.615L197.393 142.867L195.639 142.713ZM208.606 144.008C206.422 143.817 204.928 141.808 205.127 139.528C205.327 137.249 207.147 135.529 209.331 135.72C210.479 135.821 211.383 136.494 211.774 137.171L211.867 136.103L213.621 136.256L212.923 144.226L211.17 144.072L211.264 143.004C210.762 143.603 209.754 144.109 208.606 144.008ZM209.064 142.442C210.467 142.565 211.537 141.534 211.662 140.1C211.788 138.665 210.913 137.465 209.51 137.342C208.108 137.219 207.038 138.25 206.912 139.684C206.787 141.119 207.662 142.32 209.064 142.442ZM222.304 145.207C220.263 145.028 218.573 143.419 218.69 141.534L220.491 141.692C220.648 142.653 221.418 143.395 222.454 143.485C223.729 143.597 224.658 142.715 224.758 141.567C224.863 140.372 224.082 139.388 222.87 139.282C221.93 139.199 221.22 139.603 220.792 140.272L219.257 139.64L221.012 133.53L226.4 134.001L226.251 135.707L222.234 135.355L221.471 138.019C221.928 137.754 222.534 137.614 223.283 137.68C225.435 137.868 226.709 139.65 226.512 141.897C226.327 144.017 224.583 145.406 222.304 145.207ZM231.827 146.04C229.436 145.831 227.888 143.881 228.111 141.33L228.371 138.366C228.594 135.815 230.457 134.163 232.848 134.373C235.254 134.583 236.802 136.533 236.579 139.084L236.32 142.048C236.097 144.599 234.234 146.251 231.827 146.04ZM231.977 144.319C233.38 144.441 234.422 143.553 234.567 141.895L234.826 138.93C234.971 137.273 234.1 136.217 232.697 136.094C231.31 135.973 230.269 136.861 230.124 138.519L229.865 141.484C229.719 143.141 230.591 144.197 231.977 144.319ZM241.804 146.913C239.414 146.704 237.866 144.753 238.089 142.203L238.348 139.239C238.571 136.688 240.434 135.036 242.825 135.246C245.232 135.456 246.78 137.406 246.557 139.957L246.297 142.921C246.074 145.472 244.211 147.124 241.804 146.913ZM241.955 145.192C243.358 145.314 244.399 144.426 244.544 142.768L244.803 139.803C244.948 138.146 244.077 137.09 242.675 136.967C241.288 136.846 240.246 137.734 240.101 139.392L239.842 142.357C239.697 144.014 240.568 145.07 241.955 145.192ZM249.253 143.1L249.401 141.41L250.771 141.53L251.24 136.174L254.571 136.466C256.866 136.667 258.288 138.221 258.104 140.325C257.92 142.428 256.25 143.712 253.955 143.511L252.377 143.373L252.272 144.568L255.237 144.828L255.159 145.72L252.194 145.461L252.003 147.645L250.25 147.491L250.441 145.308L249.07 145.188L249.148 144.295L250.519 144.415L250.623 143.22L249.253 143.1ZM252.525 141.683L254.071 141.819C255.362 141.932 256.171 141.312 256.271 140.164C256.372 139.017 255.681 138.282 254.39 138.169L252.844 138.033L252.525 141.683ZM138.022 157.749L136.46 157.612L137.157 149.643L138.91 149.796L138.446 155.104L142.975 150.152L144.537 150.288L143.839 158.258L142.086 158.105L142.55 152.797L138.022 157.749ZM148.947 158.865C147.337 158.725 145.875 157.81 145.688 156.091L147.49 156.248C147.669 156.955 148.245 157.342 149.074 157.415C150.095 157.488 150.631 157.053 150.686 156.432C150.746 155.746 150.269 155.319 149.377 155.241L148.436 155.159L148.549 153.868L149.458 153.947C150.175 154.01 150.681 153.733 150.738 153.079C150.793 152.458 150.331 152.048 149.518 151.977C148.768 151.911 148.18 152.213 147.934 152.818L146.181 152.665C146.664 151.004 148.19 150.447 149.672 150.577C151.681 150.753 152.523 151.951 152.423 153.098C152.363 153.784 152.072 154.353 151.416 154.697C152.131 155.145 152.522 155.821 152.444 156.714C152.337 157.941 151.131 159.056 148.947 158.865ZM157.815 159.481L158.513 151.511L165.701 152.14L165.004 160.11L163.251 159.956L163.811 153.549L160.129 153.227L159.569 159.634L157.815 159.481ZM170.945 160.79C168.586 160.584 166.93 158.592 167.132 156.28C167.334 153.969 169.312 152.295 171.671 152.502C174.03 152.708 175.686 154.7 175.484 157.011C175.282 159.322 173.304 160.996 170.945 160.79ZM171.088 159.164C172.49 159.287 173.575 158.274 173.699 156.855C173.823 155.436 172.931 154.25 171.528 154.127C170.11 154.003 169.025 155.017 168.901 156.435C168.777 157.854 169.669 159.04 171.088 159.164ZM176.194 159.515L176.402 159.533C177.023 159.587 177.575 159.154 177.738 157.289L178.094 153.224L184.661 153.799L184.1 160.206L185.343 160.315L185.032 163.869L183.439 163.73L183.613 161.738L177.668 161.217L177.493 163.21L175.883 163.069L176.194 159.515ZM179.711 154.94L179.476 157.617C179.377 158.749 179.15 159.324 178.824 159.745L182.347 160.053L182.771 155.207L179.711 154.94ZM190.595 162.509C187.981 162.28 186.614 160.282 186.861 157.46L186.917 156.823C187.271 152.774 188.949 151.219 192.109 150.901L195.04 150.627L194.893 152.301L192.352 152.528C190.23 152.728 189.258 153.559 188.856 155.402C189.628 154.651 190.614 154.4 191.586 154.485C193.993 154.696 195.321 156.594 195.137 158.698C194.933 161.026 192.97 162.717 190.595 162.509ZM190.721 160.882C192.108 161.003 193.215 160.104 193.349 158.574C193.464 157.251 192.565 156.145 191.163 156.022C189.728 155.896 188.678 156.881 188.567 158.156C188.433 159.686 189.335 160.761 190.721 160.882ZM200.162 163.346C197.803 163.14 196.146 161.148 196.348 158.837C196.551 156.525 198.528 154.851 200.887 155.058C203.246 155.264 204.903 157.256 204.701 159.567C204.498 161.878 202.521 163.552 200.162 163.346ZM200.304 161.72C201.707 161.843 202.791 160.83 202.915 159.411C203.039 157.993 202.147 156.806 200.745 156.684C199.326 156.559 198.242 157.573 198.118 158.991C197.994 160.41 198.886 161.596 200.304 161.72ZM207.577 167.191L205.824 167.038L206.813 155.737L208.566 155.89L208.472 156.958C208.975 156.36 209.998 155.855 211.146 155.955C213.33 156.146 214.824 158.156 214.625 160.436C214.425 162.715 212.605 164.435 210.421 164.244C209.273 164.143 208.353 163.468 207.962 162.792L207.577 167.191ZM210.242 162.622C211.644 162.745 212.714 161.714 212.84 160.279C212.965 158.845 212.09 157.644 210.688 157.521C209.269 157.397 208.199 158.428 208.074 159.862C207.948 161.297 208.823 162.498 210.242 162.622ZM221.353 165.04L218.112 161.335L217.815 164.73L216.062 164.577L216.759 156.607L218.512 156.76L218.214 160.171L221.652 157.035L223.788 157.222L219.827 160.826L223.665 165.242L221.353 165.04ZM226.185 165.462L224.623 165.326L225.32 157.356L227.073 157.509L226.609 162.817L231.138 157.865L232.7 158.002L232.003 165.971L230.249 165.818L230.714 160.51L226.185 165.462Z" fill="black"/>
</svg>
