<svg width="82" height="80" viewBox="0 0 82 80" fill="none" xmlns="http://www.w3.org/2000/svg">
<rect width="82" height="80" fill="#F5F5F5"/>
<g clip-path="url(#clip0_1028_1760)">
<rect width="360" height="3739" transform="translate(-110 -1785)" fill="#1D625E"/>
<path fill-rule="evenodd" clip-rule="evenodd" d="M-61.4516 -190.693C-69.7044 -191.415 -76.9798 -185.31 -77.7019 -177.057L-83.5413 -110.312C-73.0878 -109.397 -65.355 -100.182 -66.2696 -89.7283C-67.1841 -79.2748 -76.3997 -71.542 -86.8532 -72.4565L-92.6927 -5.71148C-93.4147 2.54127 -87.3098 9.81676 -79.0571 10.5388L200.874 35.0295C209.126 35.7516 216.402 29.6467 217.124 21.394L222.963 -45.3511C212.51 -46.2656 204.777 -55.4813 205.692 -65.9347C206.606 -76.3882 215.822 -84.121 226.275 -83.2065L232.115 -149.952C232.837 -158.204 226.732 -165.48 218.479 -166.202L-61.4516 -190.693Z" fill="white"/>
<path fill-rule="evenodd" clip-rule="evenodd" d="M-79.0571 94.7981C-87.3098 95.5202 -93.4147 102.796 -92.6927 111.048L-86.8532 177.793C-76.3998 176.879 -67.1841 184.612 -66.2696 195.065C-65.355 205.519 -73.0878 214.734 -83.5413 215.649L-77.7019 282.394C-76.9799 290.647 -69.7044 296.751 -61.4516 296.029L218.479 271.539C226.732 270.817 232.837 263.541 232.115 255.288L226.275 188.543C215.822 189.458 206.606 181.725 205.692 171.272C204.777 160.818 212.51 151.603 222.963 150.688L217.124 83.943C216.402 75.6902 209.126 69.5853 200.874 70.3074L-79.0571 94.7981Z" fill="white"/>
<path d="M61.0055 65.0322C73.7473 51.2529 64.2678 42.1301 57.9353 39.2912C69.5085 22.1418 53.9474 15.4412 44.7202 14.2346C51.7421 11.8008 43.8841 9.09674 38.0675 9.74453C17.5403 12.0307 7.04269 28.6155 13.1244 46.7057C17.9897 61.1779 29.9359 62.713 35.3009 61.6715C38.56 68.5332 48.2638 78.8116 61.0055 65.0322Z" fill="#FFF3CA"/>
<path d="M65.4753 6.17183C53.1156 8.06599 55.7016 22.0229 55.7016 22.0229C55.7016 22.0229 47.2301 23.3368 52.6686 35.4843C58.9331 49.4765 76.7223 43.8471 76.8649 39.7712C76.9688 36.8046 79.2648 40.384 87.0757 36.686C93.3244 33.7276 92.5737 24.1712 88.7795 21.3031C87.2472 15.0902 83.3924 15.1806 81.2545 16.8487C80.0004 11.4662 77.0833 4.39287 65.4753 6.17183Z" fill="#EFDDA2"/>
</g>
<defs>
<clipPath id="clip0_1028_1760">
<rect width="360" height="3739" fill="white" transform="translate(-110 -1785)"/>
</clipPath>
</defs>
</svg>
