<svg width="42" height="40" viewBox="0 0 42 40" fill="none" xmlns="http://www.w3.org/2000/svg">
<rect width="42" height="40" fill="#F5F5F5"/>
<g clip-path="url(#clip0_1028_1760)">
<rect width="360" height="3739" transform="translate(-160 -1790)" fill="#1D625E"/>
<path fill-rule="evenodd" clip-rule="evenodd" d="M-111.452 -195.693C-119.704 -196.415 -126.98 -190.31 -127.702 -182.057L-133.541 -115.312C-123.088 -114.397 -115.355 -105.182 -116.27 -94.7283C-117.184 -84.2748 -126.4 -76.542 -136.853 -77.4565L-142.693 -10.7115C-143.415 -2.45873 -137.31 4.81676 -129.057 5.53878L150.874 30.0295C159.126 30.7516 166.402 24.6467 167.124 16.394L172.963 -50.3511C162.51 -51.2656 154.777 -60.4813 155.692 -70.9347C156.606 -81.3882 165.822 -89.121 176.275 -88.2065L182.115 -154.952C182.837 -163.204 176.732 -170.48 168.479 -171.202L-111.452 -195.693Z" fill="white"/>
<path d="M11.0055 60.0322C23.7473 46.2529 14.2678 37.1301 7.93532 34.2912C19.5085 17.1418 3.94745 10.4412 -5.27975 9.23463C1.74206 6.80081 -6.11594 4.09674 -11.9325 4.74453C-32.4597 7.03066 -42.9573 23.6155 -36.8756 41.7057C-32.0103 56.1779 -20.0641 57.713 -14.6991 56.6715C-11.44 63.5332 -1.73621 73.8116 11.0055 60.0322Z" fill="#FFF3CA"/>
<path d="M15.4753 1.17183C3.11563 3.06599 5.70157 17.0229 5.70157 17.0229C5.70157 17.0229 -2.76989 18.3368 2.66863 30.4843C8.93307 44.4765 26.7223 38.8471 26.8649 34.7712C26.9688 31.8046 29.2648 35.384 37.0757 31.686C43.3244 28.7276 42.5737 19.1712 38.7795 16.3031C37.2472 10.0902 33.3924 10.1806 31.2545 11.8487C30.0004 6.4662 27.0833 -0.60713 15.4753 1.17183Z" fill="#EFDDA2"/>
</g>
<defs>
<clipPath id="clip0_1028_1760">
<rect width="360" height="3739" fill="white" transform="translate(-160 -1790)"/>
</clipPath>
</defs>
</svg>
