<svg width="304" height="280" viewBox="0 0 304 280" fill="none" xmlns="http://www.w3.org/2000/svg">
<path d="M130.243 157.732L79.6374 226.105C77.0696 228.742 74.1327 235.381 82.1486 241.408L82.136 241.426C82.2775 241.523 82.418 241.617 82.5577 241.708C82.6931 241.805 82.8313 241.902 82.9725 241.998L82.9851 241.98C91.5084 247.264 96.6301 242.119 98.1567 238.77L143.52 166.812L138.88 160.248L139.092 159.937L138.568 159.807L138.256 159.365L138.043 159.676L130.243 157.732Z" fill="#D3B9A9"/>
<path d="M164.092 52.9452C176.328 35.0524 207.529 30.9279 216.202 35.5047C219.825 37.417 218.467 59.296 220.833 67.9651C223.76 78.6885 233.153 91.8399 232.165 92.4639L178.617 170.765C166.38 188.658 141.956 193.243 124.063 181.007C106.17 168.77 101.585 144.346 113.821 126.453L164.092 52.9452Z" fill="#743F29"/>
<path d="M203.666 37.8959L209.525 36.7449C213.869 35.8916 218.271 37.911 220.458 41.7596C221.811 44.1408 222.159 46.963 221.425 49.6016L221.059 50.918C220.08 54.4363 220.56 58.2005 222.39 61.3608L224.234 64.5461C225.253 66.3056 226.027 68.1961 226.534 70.1651L229.81 82.8808C231.193 88.2464 228.271 93.7839 223.062 95.6722C217.968 97.5188 212.296 95.2868 209.827 90.4642L194.761 61.0415C193.333 58.2527 194.296 54.8344 196.97 53.2018L197.086 53.1312C199.55 51.6268 200.542 48.5456 199.419 45.886C197.98 42.4783 200.036 38.609 203.666 37.8959Z" fill="#ECDFC6"/>
<path d="M155.724 106.887L156.642 107.351C158.279 108.18 160.193 106.904 160.058 105.074C159.952 103.623 158.568 102.613 157.153 102.956L156.153 103.197C155.411 103.376 154.839 103.966 154.682 104.713C154.497 105.59 154.925 106.482 155.724 106.887Z" fill="#EFDDA2"/>
<path d="M153.095 174.454L154.013 174.919C155.65 175.747 157.564 174.472 157.429 172.642C157.322 171.19 155.939 170.181 154.524 170.523L153.524 170.765C152.782 170.944 152.21 171.534 152.053 172.281C151.868 173.158 152.296 174.049 153.095 174.454Z" fill="#EFDDA2"/>
<path d="M128.859 159.491L129.777 159.956C131.413 160.784 133.328 159.509 133.193 157.679C133.086 156.227 131.702 155.218 130.287 155.56L129.288 155.802C128.546 155.981 127.974 156.571 127.816 157.318C127.632 158.195 128.059 159.086 128.859 159.491Z" fill="#EFDDA2"/>
<path d="M170.591 133.622L171.509 134.087C173.146 134.915 175.06 133.639 174.925 131.81C174.818 130.358 173.435 129.349 172.02 129.691L171.02 129.933C170.278 130.112 169.706 130.702 169.549 131.448C169.364 132.326 169.792 133.217 170.591 133.622Z" fill="#EFDDA2"/>
<path d="M175.732 91.8083L176.649 92.2728C178.286 93.1013 180.2 91.8256 180.066 89.9961C179.959 88.5444 178.575 87.5352 177.16 87.8773L176.161 88.1189C175.419 88.2982 174.846 88.888 174.689 89.6346C174.504 90.5117 174.932 91.4035 175.732 91.8083Z" fill="#EFDDA2"/>
<path d="M160.105 154.781L160.848 153.521C162.173 151.274 160.537 148.44 157.928 148.465C155.857 148.484 154.299 150.356 154.656 152.396L154.908 153.837C155.095 154.906 155.88 155.772 156.925 156.063C158.153 156.406 159.458 155.88 160.105 154.781Z" fill="#EFDDA2"/>
<path d="M203.381 106.527L204.366 101.823C204.452 101.41 204.269 100.986 203.909 100.766L201.725 99.4283C201.208 99.1124 200.532 99.3237 200.288 99.8773L199.676 101.263C199.568 101.506 199.562 101.782 199.659 102.03L201.471 106.684C201.832 107.611 203.178 107.5 203.381 106.527Z" fill="#EFDDA2"/>
<path d="M178.068 112.439L178.857 113.943C180.264 116.624 178.205 119.815 175.182 119.637C172.783 119.496 171.084 117.236 171.614 114.893L171.989 113.237C172.267 112.008 173.226 111.049 174.455 110.771C175.898 110.445 177.38 111.129 178.068 112.439Z" fill="#EFDDA2"/>
<path d="M176.373 97.4066C175.715 99.2818 172.963 98.9285 172.8 96.9477C172.709 95.8405 173.611 94.905 174.721 94.9564C175.953 95.0135 176.782 96.2425 176.373 97.4066Z" fill="#EFDDA2"/>
<path d="M195.242 78.3376C194.583 80.2128 191.832 79.8595 191.669 77.8787C191.577 76.7715 192.48 75.836 193.589 75.8875C194.822 75.9445 195.651 77.1735 195.242 78.3376Z" fill="#EFDDA2"/>
<path d="M128.819 136.856C128.161 138.731 125.409 138.378 125.246 136.397C125.155 135.29 126.057 134.354 127.167 134.406C128.399 134.463 129.228 135.692 128.819 136.856Z" fill="#EFDDA2"/>
<path d="M187.002 141.976C186.343 143.851 183.592 143.498 183.428 141.517C183.337 140.41 184.239 139.474 185.349 139.526C186.581 139.583 187.41 140.812 187.002 141.976Z" fill="#EFDDA2"/>
<path d="M147.065 127.692C146.407 129.568 143.655 129.214 143.492 127.233C143.401 126.126 144.303 125.191 145.413 125.242C146.645 125.299 147.474 126.528 147.065 127.692Z" fill="#EFDDA2"/>
<path d="M150.531 148.265C149.872 150.14 147.121 149.787 146.957 147.806C146.866 146.699 147.768 145.764 148.878 145.815C150.111 145.872 150.94 147.101 150.531 148.265Z" fill="#EFDDA2"/>
<path d="M143.472 110.319C142.813 112.194 140.062 111.841 139.899 109.86C139.807 108.753 140.71 107.817 141.819 107.869C143.052 107.926 143.881 109.155 143.472 110.319Z" fill="#EFDDA2"/>
<path d="M177.319 71.463C176.661 73.3382 173.909 72.9849 173.746 71.0041C173.655 69.8969 174.557 68.9614 175.667 69.0128C176.899 69.0699 177.728 70.2989 177.319 71.463Z" fill="#EFDDA2"/>
</svg>
