<svg width="269" height="656" viewBox="0 0 269 656" fill="none" xmlns="http://www.w3.org/2000/svg">
<path d="M130.081 379.584L251.736 397.71L130.081 415.836L8.42615 397.71L130.081 379.584Z" fill="#ECECEC"/>
<path d="M237.61 355.851C227.774 351.627 223.329 362.937 223.329 362.937C223.329 362.937 216.58 360.053 215.027 371.341C213.238 384.343 228.71 388.314 230.66 385.418C232.08 383.31 232.126 386.95 239.475 387.803C245.355 388.485 249.139 381.203 247.682 377.401C249.384 372.194 246.543 370.513 244.235 370.756C245.762 366.278 246.848 359.818 237.61 355.851Z" fill="#EFDDA2"/>
<path d="M33.4174 356.508C42.8094 351.371 48.3056 362.209 48.3056 362.209C48.3056 362.209 54.751 358.699 57.3662 369.789C60.3786 382.563 45.3518 387.982 43.1359 385.283C41.5232 383.319 41.8221 386.948 34.5866 388.492C28.7983 389.728 24.3412 382.838 25.4312 378.914C23.2438 373.892 25.9129 371.949 28.2343 371.973C26.2894 367.66 24.5967 361.332 33.4174 356.508Z" fill="#EFDDA2"/>
<path d="M189.842 388.093C194.604 397.179 204.746 391.455 204.746 391.455C204.746 391.455 208.022 397.679 216 390.224C225.189 381.636 216.083 369.331 212.882 370.306C210.552 371.015 212.719 368.28 207.769 363.204C203.809 359.143 196.593 362.27 195.378 365.979C190.964 368.822 192.061 371.79 193.925 373.004C190.082 375.411 185.37 379.559 189.842 388.093Z" fill="#FFF3CA"/>
<path d="M64.1195 331.358C71.55 327.192 67.9429 324.243 67.9429 324.243C67.9429 324.243 75.9167 317.511 69.9359 307.813C63.0467 296.642 48.5817 303.419 48.9187 306.894C49.164 309.424 46.8131 306.644 40.5996 310.66C35.6288 313.873 37.34 321.899 40.8825 323.907C42.8812 329.008 46.1425 328.498 47.7695 326.842C49.4388 331.269 55.3503 336.275 64.1195 331.358Z" fill="#EFDDA2"/>
<path d="M206.914 390.239C207.031 387.042 210.158 379.331 220.085 378.987C228.455 378.697 234.404 385.755 232.845 391.589C233.453 397.412 230.283 399.12 226.793 403.323C223.303 407.526 214.526 404.13 210.841 401.888C207.155 399.646 206.817 392.887 206.914 390.239Z" fill="#EFDDA2"/>
<path d="M184.122 274.8C175.879 273.929 175.153 279.694 175.821 282.686C166.693 283.119 168.431 290.398 170.442 293.983C167.725 292.14 168.844 295.636 170.61 297.524C176.841 304.187 185.485 303.522 190.283 296.591C194.121 291.045 191.509 286.411 189.723 284.787C191.291 281.82 192.366 275.67 184.122 274.8Z" fill="#EFDDA2"/>
<path d="M72.6982 355.638C75.8122 349.048 71.2373 346.773 68.5606 346.46C70.849 338.758 64.3035 338.09 60.7447 338.718C63.0622 336.998 59.836 336.912 57.7569 337.83C50.4191 341.07 48.4634 348.437 52.8248 354.43C56.314 359.224 60.9183 358.4 62.7843 357.389C64.7914 359.551 69.5841 362.227 72.6982 355.638Z" fill="#FFF3CA"/>
<path d="M45.7352 285.793C48.8492 279.203 44.2743 276.929 41.5976 276.615C43.8859 268.913 37.3404 268.245 33.7816 268.873C36.0992 267.153 32.873 267.068 30.7938 267.986C23.4561 271.225 21.5004 278.592 25.8618 284.585C29.351 289.379 33.9553 288.555 35.8213 287.544C37.8284 289.706 42.6211 292.383 45.7352 285.793Z" fill="#EFDDA2"/>
<path d="M122.609 263.023C126.729 257.011 131 259.815 132.621 261.969C138.118 256.109 141.996 261.424 143.247 264.815C143.564 261.946 145.265 264.689 145.521 266.947C146.423 274.917 141.047 280.321 133.673 279.576C127.773 278.98 126.163 274.589 126.095 272.467C123.216 271.824 118.488 269.035 122.609 263.023Z" fill="#FFF3CA"/>
<path d="M94.1182 325.412C100.833 328.246 102.913 323.579 103.113 320.891C110.145 322.661 113.18 313.588 111.28 309.733C107.733 302.538 100.29 300.895 94.4869 305.506C89.8443 309.194 90.8615 313.759 91.9505 315.581C89.8751 317.678 87.403 322.579 94.1182 325.412Z" fill="#EFDDA2"/>
<path d="M71.8391 263.996C71.956 260.799 75.0829 253.088 85.0101 252.744C93.3804 252.454 99.3296 259.512 97.7702 265.346C98.3787 271.169 95.2088 272.877 91.7184 277.08C88.228 281.283 79.4516 277.887 75.766 275.645C72.0804 273.403 71.7424 266.644 71.8391 263.996Z" fill="#EFDDA2"/>
<path d="M17.8645 392.287C17.9814 389.09 21.1082 381.379 31.0355 381.035C39.4058 380.745 45.355 387.803 43.7956 393.637C44.4041 399.46 41.2342 401.168 37.7438 405.371C34.2534 409.573 25.4769 406.178 21.7914 403.936C18.1058 401.694 17.7677 394.935 17.8645 392.287Z" fill="#FFF3CA"/>
<path d="M68.9682 400.69C69.0851 397.493 72.2119 389.782 82.1392 389.438C90.5095 389.148 96.4587 396.206 94.8993 402.04C95.5078 407.863 92.3379 409.571 88.8475 413.774C85.3571 417.977 76.5806 414.581 72.8951 412.339C69.2095 410.097 68.8714 403.338 68.9682 400.69Z" fill="#EFDDA2"/>
<path d="M121.731 393.68C121.848 390.483 124.975 382.773 134.902 382.428C143.272 382.138 149.221 389.196 147.662 395.031C148.271 400.853 145.101 402.561 141.61 406.764C138.12 410.967 129.343 407.572 125.658 405.33C121.972 403.088 121.634 396.328 121.731 393.68Z" fill="#EFDDA2"/>
<path d="M186.307 399.622C186.424 396.425 189.55 388.715 199.478 388.37C207.848 388.08 213.797 395.138 212.238 400.973C212.846 406.795 209.676 408.504 206.186 412.706C202.696 416.909 193.919 413.514 190.234 411.272C186.548 409.03 186.21 402.271 186.307 399.622Z" fill="#EFDDA2"/>
<path d="M142.474 382.425C142.591 379.228 145.718 371.517 155.645 371.173C164.015 370.883 169.965 377.941 168.405 383.775C169.014 389.598 165.844 391.306 162.353 395.509C158.863 399.712 150.087 396.316 146.401 394.074C142.715 391.832 142.377 385.073 142.474 382.425Z" fill="#EFDDA2"/>
<path d="M101.867 358.022C101.984 354.825 105.111 347.114 115.038 346.77C123.409 346.48 129.358 353.538 127.798 359.373C128.407 365.195 125.237 366.903 121.747 371.106C118.256 375.309 109.48 371.914 105.794 369.671C102.109 367.429 101.77 360.67 101.867 358.022Z" fill="#EFDDA2"/>
<path d="M208.458 295.461C208.561 292.642 211.319 285.842 220.073 285.538C227.455 285.282 232.701 291.506 231.326 296.652C231.863 301.787 229.067 303.293 225.989 306.999C222.911 310.706 215.171 307.711 211.921 305.734C208.671 303.757 208.373 297.796 208.458 295.461Z" fill="#FFF3CA"/>
<path d="M45.7652 381.499C45.8821 378.302 49.0089 370.591 58.9362 370.247C67.3065 369.957 73.2557 377.015 71.6963 382.849C72.3048 388.672 69.1349 390.38 65.6445 394.583C62.1541 398.786 53.3776 395.39 49.6921 393.148C46.0065 390.906 45.6684 384.147 45.7652 381.499Z" fill="#FFF3CA"/>
<path d="M75.8415 266.149C69.1644 267.56 66.9963 273.404 66.7469 276.15C65.2137 278.41 66.8149 279.185 67.8072 279.29C68.5025 284.269 71.4976 285.038 75.2751 287.821C79.0526 290.603 85.6674 285.961 88.2766 283.331C90.8859 280.7 89.2522 275.082 89.1443 272.809C89.0365 270.536 84.1878 264.386 75.8415 266.149Z" fill="#FFF3CA"/>
<path d="M137.671 336.986C142.818 331.928 141.41 325.459 140.062 322.857C140.137 319.961 138.267 320.176 137.322 320.646C133.855 316.579 130.745 317.592 125.787 317.244C120.828 316.897 117.584 324.816 116.761 328.655C115.939 332.495 120.607 336.601 122.003 338.577C123.399 340.552 131.237 343.308 137.671 336.986Z" fill="#FFF3CA"/>
<path d="M72.1506 374.941C77.2975 369.884 75.8895 363.415 74.5421 360.812C74.6171 357.916 72.7466 358.132 71.8019 358.602C68.3354 354.535 65.2252 355.547 60.2664 355.2C55.3077 354.853 52.0641 362.771 51.2413 366.611C50.4184 370.45 55.0869 374.556 56.4827 376.532C57.8785 378.508 65.717 381.263 72.1506 374.941Z" fill="#EFDDA2"/>
<path d="M226.5 325.868C220.872 329.612 221.025 335.812 221.806 338.444C221.225 341.096 222.984 341.227 223.936 340.962C226.408 345.315 229.448 344.933 233.948 346.128C238.449 347.322 242.831 340.61 244.266 337.223C245.701 333.836 242.13 329.234 241.195 327.17C240.26 325.106 233.535 321.187 226.5 325.868Z" fill="#EFDDA2"/>
<path d="M108.322 386.028C113.469 380.97 112.061 374.501 110.714 371.899C110.789 369.003 108.918 369.218 107.973 369.688C104.507 365.621 101.397 366.634 96.4379 366.287C91.4791 365.939 88.2356 373.858 87.4127 377.697C86.5899 381.537 91.2584 385.643 92.6542 387.619C94.0499 389.595 101.888 392.35 108.322 386.028Z" fill="#EFDDA2"/>
<path d="M234.445 413.885C239.592 408.827 238.184 402.358 236.837 399.756C236.912 396.86 235.041 397.075 234.097 397.545C230.63 393.478 227.52 394.491 222.561 394.144C217.602 393.796 214.359 401.715 213.536 405.554C212.713 409.394 217.382 413.5 218.777 415.476C220.173 417.452 228.012 420.207 234.445 413.885Z" fill="#FFF3CA"/>
<path d="M24.1415 337.108C29.0396 332.294 27.6996 326.138 26.4174 323.662C26.4887 320.906 24.7087 321.111 23.8097 321.558C20.5107 317.688 17.5509 318.651 12.8319 318.321C8.11286 317.99 5.02613 325.526 4.24306 329.18C3.45999 332.834 7.9028 336.741 9.23109 338.622C10.5594 340.502 18.0189 343.124 24.1415 337.108Z" fill="#EFDDA2"/>
<path d="M192.821 363.644C197.719 358.831 196.379 352.675 195.096 350.198C195.168 347.442 193.388 347.647 192.489 348.094C189.19 344.224 186.23 345.188 181.511 344.857C176.792 344.527 173.705 352.063 172.922 355.716C172.139 359.37 176.582 363.278 177.91 365.158C179.238 367.038 186.698 369.661 192.821 363.644Z" fill="#EFDDA2"/>
<path d="M174.915 309.762C186.882 304.756 188.29 313.981 187.499 319.219C204.385 309.75 206.688 329.057 201.663 332.763C197.644 335.727 189.325 333.348 185.668 331.788C185.377 332.958 183.717 335.972 179.407 338.673C175.098 341.374 172.022 338.908 171.023 337.337C165.163 338.078 154.029 335.786 156.364 320.697C158.699 305.608 169.704 307.12 174.915 309.762Z" fill="#EFDDA2"/>
<path d="M194.899 355.979C192.52 362.791 196.644 367.97 199.003 369.709C200.217 372.339 201.799 371.319 202.438 370.479C207.346 372.594 209.688 370.31 214.289 368.429C218.89 366.547 218.297 358.01 217.337 354.203C216.377 350.396 210.374 348.777 208.248 347.623C206.122 346.468 197.873 347.463 194.899 355.979Z" fill="#EFDDA2"/>
<path d="M17.6004 356.238C26.9923 351.102 32.4885 361.94 32.4885 361.94C32.4885 361.94 38.9339 358.43 41.5491 369.52C44.5615 382.294 29.5347 387.712 27.3189 385.014C25.7061 383.05 26.005 386.678 18.7696 388.223C12.9812 389.459 8.52413 382.568 9.61408 378.645C7.42671 373.622 10.0958 371.68 12.4172 371.703C10.4723 367.39 8.77965 361.062 17.6004 356.238Z" fill="#EFDDA2"/>
<path d="M190.227 387.824C194.989 396.91 205.131 391.186 205.131 391.186C205.131 391.186 208.407 397.41 216.385 389.954C225.574 381.367 216.468 369.061 213.267 370.036C210.937 370.746 213.103 368.011 208.153 362.935C204.193 358.873 196.977 362.001 195.762 365.709C191.349 368.553 192.446 371.52 194.31 372.735C190.467 375.142 185.755 379.29 190.227 387.824Z" fill="#FFF3CA"/>
<path d="M129.584 190.691C132.897 197.013 139.953 193.03 139.953 193.03C139.953 193.03 142.233 197.361 147.784 192.173C154.177 186.198 147.841 177.637 145.614 178.315C143.993 178.809 145.501 176.906 142.056 173.374C139.301 170.548 134.281 172.724 133.435 175.304C130.365 177.283 131.128 179.348 132.425 180.193C129.751 181.867 126.472 184.753 129.584 190.691Z" fill="#FFF3CA"/>
<path d="M64.5043 331.089C71.9348 326.922 68.3276 323.973 68.3276 323.973C68.3276 323.973 76.3015 317.242 70.3206 307.543C63.4315 296.372 48.9665 303.149 49.3035 306.624C49.5488 309.154 47.1979 306.374 40.9844 310.39C36.0136 313.603 37.7248 321.63 41.2672 323.637C43.2659 328.738 46.5273 328.228 48.1543 326.572C49.8236 330.999 55.7351 336.006 64.5043 331.089Z" fill="#EFDDA2"/>
<path d="M207.299 389.969C207.415 386.772 210.542 379.061 220.469 378.717C228.84 378.427 234.789 385.485 233.23 391.319C233.838 397.142 230.668 398.85 227.178 403.053C223.687 407.255 214.911 403.86 211.225 401.618C207.54 399.376 207.202 392.617 207.299 389.969Z" fill="#EFDDA2"/>
<path d="M73.0832 355.368C76.1973 348.778 71.6223 346.504 68.9456 346.19C71.234 338.488 64.6885 337.82 61.1297 338.448C63.4472 336.728 60.2211 336.643 58.1419 337.56C50.8041 340.8 48.8484 348.167 53.2098 354.16C56.699 358.954 61.3033 358.13 63.1693 357.119C65.1764 359.281 69.9692 361.958 73.0832 355.368Z" fill="#FFF3CA"/>
<path d="M46.1202 285.524C49.2342 278.934 44.6593 276.659 41.9826 276.346C44.271 268.644 37.7254 267.975 34.1666 268.604C36.4842 266.884 33.258 266.798 31.1788 267.716C23.8411 270.956 21.8854 278.323 26.2468 284.315C29.736 289.109 34.3403 288.286 36.2063 287.275C38.2134 289.437 43.0061 292.113 46.1202 285.524Z" fill="#EFDDA2"/>
<path d="M122.994 262.753C127.114 256.742 131.385 259.545 133.006 261.699C138.503 255.839 142.38 261.155 143.632 264.545C143.949 261.676 145.65 264.419 145.905 266.677C146.808 274.647 141.432 280.051 134.058 279.306C128.158 278.71 126.548 274.319 126.48 272.198C123.601 271.554 118.873 268.765 122.994 262.753Z" fill="#FFF3CA"/>
<path d="M127.513 313.809C121.057 321.01 115.92 316.586 114.158 313.473C106.721 319.577 97.9433 310.405 98.0422 304.702C98.2269 294.06 106.231 287.876 115.805 290.125C123.465 291.925 124.827 297.98 124.551 300.783C128.229 302.125 133.97 306.608 127.513 313.809Z" fill="#FFF3CA"/>
<path d="M72.2241 263.726C72.341 260.529 75.4679 252.819 85.3951 252.475C93.7655 252.184 99.7146 259.242 98.1552 265.077C98.7637 270.9 95.5938 272.608 92.1034 276.81C88.613 281.013 79.8366 277.618 76.151 275.376C72.4655 273.134 72.1274 266.375 72.2241 263.726Z" fill="#EFDDA2"/>
<path d="M18.2494 392.017C18.3662 388.82 21.4931 381.109 31.4204 380.765C39.7907 380.475 45.7399 387.533 44.1805 393.368C44.789 399.19 41.6191 400.898 38.1287 405.101C34.6383 409.304 25.8618 405.908 22.1763 403.666C18.4907 401.424 18.1526 394.665 18.2494 392.017Z" fill="#FFF3CA"/>
<path d="M48.1118 106.984C48.2049 104.437 50.6958 98.2949 58.6038 98.0207C65.2716 97.7895 70.0107 103.412 68.7685 108.06C69.2532 112.698 66.728 114.059 63.9476 117.407C61.1672 120.755 54.1759 118.05 51.24 116.264C48.3041 114.478 48.0347 109.093 48.1118 106.984Z" fill="#FFF3CA"/>
<path d="M69.3532 400.42C69.4701 397.223 72.597 389.513 82.5242 389.168C90.8945 388.878 96.8437 395.936 95.2843 401.771C95.8928 407.593 92.7229 409.302 89.2325 413.504C85.7421 417.707 76.9657 414.312 73.2801 412.07C69.5945 409.828 69.2565 403.069 69.3532 400.42Z" fill="#EFDDA2"/>
<path d="M122.116 393.411C122.233 390.214 125.36 382.503 135.287 382.159C143.657 381.869 149.606 388.927 148.047 394.761C148.655 400.584 145.486 402.292 141.995 406.495C138.505 410.698 129.728 407.302 126.043 405.06C122.357 402.818 122.019 396.059 122.116 393.411Z" fill="#EFDDA2"/>
<path d="M186.692 399.353C186.809 396.156 189.935 388.445 199.863 388.101C208.233 387.811 214.182 394.869 212.623 400.703C213.231 406.526 210.061 408.234 206.571 412.437C203.081 416.64 194.304 413.244 190.619 411.002C186.933 408.76 186.595 402.001 186.692 399.353Z" fill="#EFDDA2"/>
<path d="M142.859 382.156C142.976 378.959 146.103 371.248 156.03 370.904C164.4 370.614 170.349 377.672 168.79 383.506C169.398 389.329 166.228 391.037 162.738 395.24C159.248 399.443 150.471 396.047 146.786 393.805C143.1 391.563 142.762 384.804 142.859 382.156Z" fill="#EFDDA2"/>
<path d="M102.252 357.752C102.369 354.555 105.496 346.845 115.423 346.501C123.793 346.21 129.743 353.268 128.183 359.103C128.792 364.926 125.622 366.634 122.131 370.836C118.641 375.039 109.865 371.644 106.179 369.402C102.493 367.16 102.155 360.401 102.252 357.752Z" fill="#EFDDA2"/>
<path d="M208.843 295.191C208.946 292.372 211.704 285.572 220.458 285.269C227.84 285.013 233.086 291.237 231.711 296.382C232.248 301.517 229.452 303.023 226.374 306.73C223.296 310.436 215.556 307.442 212.306 305.465C209.056 303.487 208.758 297.527 208.843 295.191Z" fill="#FFF3CA"/>
<path d="M117.8 408.809C117.903 405.99 120.66 399.19 129.415 398.886C136.796 398.63 142.043 404.855 140.668 410C141.204 415.135 138.409 416.641 135.331 420.348C132.253 424.054 124.513 421.06 121.263 419.082C118.013 417.105 117.714 411.145 117.8 408.809Z" fill="#FFF3CA"/>
<path d="M137.373 296.085C137.476 293.266 140.234 286.466 148.988 286.163C156.37 285.907 161.616 292.131 160.241 297.276C160.778 302.411 157.982 303.918 154.904 307.624C151.826 311.33 144.086 308.336 140.836 306.359C137.586 304.381 137.288 298.421 137.373 296.085Z" fill="#FFF3CA"/>
<path d="M91.6423 311.221C91.5392 308.402 88.7817 301.602 80.0271 301.299C72.6455 301.043 67.3991 307.267 68.7743 312.412C68.2377 317.547 71.0332 319.053 74.1112 322.76C77.1893 326.466 84.9291 323.472 88.1793 321.495C91.4295 319.517 91.7276 313.557 91.6423 311.221Z" fill="#FFF3CA"/>
<path d="M46.1502 381.23C46.2671 378.033 49.394 370.322 59.3212 369.978C67.6915 369.688 73.6407 376.746 72.0813 382.58C72.6898 388.403 69.5199 390.111 66.0295 394.314C62.5391 398.517 53.7627 395.121 50.0771 392.879C46.3915 390.637 46.0534 383.878 46.1502 381.23Z" fill="#FFF3CA"/>
<path d="M75.2413 271.298C68.5642 272.709 66.3961 278.553 66.1467 281.299C64.6135 283.559 66.2148 284.334 67.2071 284.438C67.9023 289.418 70.8975 290.187 74.6749 292.97C78.4524 295.752 85.0672 291.109 87.6765 288.479C90.2857 285.849 88.6521 280.231 88.5442 277.958C88.4363 275.684 83.5877 269.535 75.2413 271.298Z" fill="#FFF3CA"/>
<path d="M138.056 336.717C143.203 331.659 141.795 325.19 140.447 322.588C140.522 319.691 138.652 319.907 137.707 320.377C134.24 316.31 131.13 317.322 126.172 316.975C121.213 316.628 117.969 324.547 117.146 328.386C116.324 332.225 120.992 336.332 122.388 338.307C123.784 340.283 131.622 343.039 138.056 336.717Z" fill="#FFF3CA"/>
<path d="M150.446 360.284C155.593 355.226 154.185 348.757 152.837 346.155C152.912 343.258 151.042 343.474 150.097 343.944C146.63 339.877 143.52 340.89 138.562 340.542C133.603 340.195 130.359 348.114 129.536 351.953C128.714 355.792 133.382 359.899 134.778 361.875C136.174 363.85 144.012 366.606 150.446 360.284Z" fill="#FFF3CA"/>
<path d="M90.5658 345.682C95.7127 340.624 94.3046 334.155 92.9572 331.553C93.0322 328.657 91.1617 328.873 90.2171 329.342C86.7506 325.275 83.6404 326.288 78.6816 325.941C73.7228 325.594 70.4793 333.512 69.6564 337.352C68.8336 341.191 73.5021 345.297 74.8979 347.273C76.2936 349.249 84.1321 352.004 90.5658 345.682Z" fill="#EFDDA2"/>
<path d="M196.546 346.933C199.652 343.881 198.802 339.977 197.989 338.406C198.034 336.658 196.905 336.788 196.335 337.072C194.243 334.617 192.366 335.228 189.373 335.019C186.381 334.809 184.423 339.588 183.927 341.905C183.43 344.222 186.248 346.701 187.09 347.893C187.932 349.085 192.663 350.748 196.546 346.933Z" fill="#EFDDA2"/>
<path d="M92.2377 193.601C93.6342 197.914 97.6656 198.94 99.5067 198.914C101.113 199.77 101.518 198.658 101.519 197.995C104.779 197.19 105.084 195.157 106.672 192.468C108.26 189.778 104.721 185.731 102.794 184.189C100.868 182.648 97.2481 184.118 95.7455 184.348C94.2429 184.577 90.492 188.208 92.2377 193.601Z" fill="#FFF3CA"/>
<path d="M185.896 209.17C183.188 205.533 179.041 205.855 177.306 206.471C175.509 206.176 175.483 207.359 175.695 207.987C172.866 209.797 173.23 211.819 172.589 214.876C171.948 217.933 176.6 220.631 178.919 221.472C181.238 222.313 184.194 219.759 185.544 219.059C186.893 218.36 189.28 213.716 185.896 209.17Z" fill="#FFF3CA"/>
<path d="M72.5356 374.672C77.6825 369.614 76.2745 363.145 74.9271 360.543C75.0021 357.647 73.1316 357.862 72.1869 358.332C68.7204 354.265 65.6102 355.278 60.6514 354.931C55.6927 354.583 52.4491 362.502 51.6263 366.341C50.8034 370.181 55.472 374.287 56.8677 376.263C58.2635 378.239 66.102 380.994 72.5356 374.672Z" fill="#EFDDA2"/>
<path d="M179.138 361.094C184.285 356.036 182.877 349.567 181.53 346.965C181.605 344.069 179.734 344.284 178.79 344.754C175.323 340.687 172.213 341.7 167.254 341.353C162.295 341.005 159.052 348.924 158.229 352.763C157.406 356.603 162.075 360.709 163.47 362.685C164.866 364.661 172.705 367.416 179.138 361.094Z" fill="#EFDDA2"/>
<path d="M108.707 385.758C113.854 380.7 112.446 374.231 111.098 371.629C111.173 368.733 109.303 368.949 108.358 369.418C104.892 365.351 101.782 366.364 96.8228 366.017C91.864 365.67 88.6205 373.588 87.7976 377.428C86.9748 381.267 91.6433 385.373 93.039 387.349C94.4348 389.325 102.273 392.08 108.707 385.758Z" fill="#EFDDA2"/>
<path d="M124.492 404.972C129.639 399.914 128.231 393.445 126.884 390.843C126.959 387.947 125.088 388.162 124.143 388.632C120.677 384.565 117.567 385.578 112.608 385.23C107.649 384.883 104.406 392.802 103.583 396.641C102.76 400.481 107.428 404.587 108.824 406.563C110.22 408.538 118.059 411.294 124.492 404.972Z" fill="#EFDDA2"/>
<path d="M197.529 379.697C202.676 374.639 201.268 368.17 199.921 365.568C199.996 362.671 198.125 362.887 197.181 363.357C193.714 359.29 190.604 360.302 185.645 359.955C180.686 359.608 177.443 367.527 176.62 371.366C175.797 375.205 180.466 379.312 181.862 381.288C183.257 383.263 191.096 386.019 197.529 379.697Z" fill="#EFDDA2"/>
<path d="M234.83 413.616C239.977 408.558 238.569 402.089 237.222 399.487C237.297 396.59 235.426 396.806 234.482 397.276C231.015 393.209 227.905 394.222 222.946 393.874C217.987 393.527 214.744 401.446 213.921 405.285C213.098 409.125 217.767 413.231 219.162 415.207C220.558 417.182 228.397 419.938 234.83 413.616Z" fill="#FFF3CA"/>
<path d="M52.7048 354.837C57.6029 350.024 56.2629 343.868 54.9807 341.392C55.052 338.635 53.2719 338.841 52.373 339.288C49.074 335.417 46.1142 336.381 41.3952 336.051C36.6762 335.72 33.5894 343.256 32.8064 346.91C32.0233 350.563 36.4661 354.471 37.7944 356.351C39.1227 358.232 46.5822 360.854 52.7048 354.837Z" fill="#EFDDA2"/>
<path d="M141.273 209.526C146.171 204.713 144.831 198.557 143.549 196.081C143.62 193.324 141.84 193.53 140.941 193.977C137.642 190.106 134.683 191.07 129.964 190.739C125.245 190.409 122.158 197.945 121.375 201.599C120.592 205.252 125.035 209.16 126.363 211.04C127.691 212.921 135.151 215.543 141.273 209.526Z" fill="#EFDDA2"/>
<path d="M118.596 289.652C123.494 284.838 122.154 278.682 120.872 276.206C120.943 273.449 119.163 273.655 118.264 274.102C114.966 270.231 112.006 271.195 107.287 270.865C102.568 270.534 99.4809 278.07 98.6978 281.724C97.9148 285.377 102.358 289.285 103.686 291.166C105.014 293.046 112.474 295.668 118.596 289.652Z" fill="#EFDDA2"/>
<path d="M193.205 363.374C198.103 358.561 196.763 352.405 195.481 349.929C195.553 347.172 193.772 347.378 192.873 347.825C189.575 343.954 186.615 344.918 181.896 344.587C177.177 344.257 174.09 351.793 173.307 355.447C172.524 359.1 176.967 363.008 178.295 364.888C179.623 366.769 187.083 369.391 193.205 363.374Z" fill="#FFF3CA"/>
<path d="M175.3 309.492C187.266 304.486 188.675 313.711 187.883 318.95C204.77 309.48 207.073 328.787 202.048 332.493C198.028 335.457 189.71 333.078 186.053 331.518C185.762 332.688 184.102 335.702 179.792 338.403C175.482 341.104 172.407 338.638 171.407 337.068C165.548 337.808 154.414 335.516 156.749 320.427C159.084 305.338 170.089 306.85 175.3 309.492Z" fill="#EFDDA2"/>
<path d="M64.5756 217.617C55.2735 220.932 59.2085 226.847 62.3387 229.39C47.9797 232.714 56.5779 244.763 61.3057 244.274C65.088 243.882 68.5515 238.28 69.8105 235.527C70.5739 236.037 73.0531 236.883 76.8634 236.194C80.6738 235.506 81.1414 232.542 80.899 231.145C84.5767 228.559 89.6702 221.563 80.6226 214.266C71.575 206.968 66.1548 213.459 64.5756 217.617Z" fill="#EFDDA2"/>
<path d="M175.168 365.155C175.09 368.376 172.428 370.438 169.208 370.36C165.987 370.283 163.439 367.609 163.517 364.388C163.594 361.168 166.268 358.62 169.489 358.697C172.71 358.775 175.246 361.935 175.168 365.155Z" fill="white"/>
<path d="M136.196 357.705C126.36 353.481 121.914 364.791 121.914 364.791C121.914 364.791 115.165 361.907 113.612 373.195C111.823 386.197 127.296 390.167 129.246 387.271C130.665 385.164 130.711 388.804 138.061 389.657C143.94 390.339 147.725 383.057 146.268 379.254C147.97 374.047 145.129 372.366 142.82 372.61C144.348 368.131 145.434 361.672 136.196 357.705Z" fill="#FFF3CA"/>
<path d="M175.576 376.234C165.74 372.01 161.295 383.32 161.295 383.32C161.295 383.32 154.546 380.436 152.993 391.724C151.204 404.726 166.676 408.696 168.627 405.8C170.046 403.692 170.092 407.333 177.441 408.185C183.321 408.868 187.105 401.586 185.649 397.783C187.351 392.576 184.51 390.895 182.201 391.138C183.728 386.66 184.814 380.201 175.576 376.234Z" fill="#EFDDA2"/>
<path d="M147.719 389.611C140.471 388.845 139.833 393.914 140.42 396.545C132.395 396.926 133.923 403.325 135.691 406.477C133.302 404.857 134.286 407.931 135.838 409.591C141.317 415.449 148.917 414.864 153.135 408.77C156.51 403.894 154.213 399.82 152.643 398.392C154.022 395.784 154.967 390.376 147.719 389.611Z" fill="#FFF3CA"/>
<path d="M137.101 352.102C137.823 344.85 142.917 345.255 145.373 346.364C147.376 338.583 153.331 341.379 156.059 343.75C154.957 341.082 157.767 342.67 159.078 344.527C163.701 351.081 161.585 358.404 154.761 361.297C149.302 363.611 145.779 360.534 144.699 358.707C141.866 359.527 136.379 359.355 137.101 352.102Z" fill="#EFDDA2"/>
<path d="M157.93 268.843C158.653 261.591 163.746 261.996 166.202 263.105C168.205 255.324 174.16 258.12 176.888 260.491C175.787 257.823 178.597 259.41 179.907 261.268C184.53 267.822 182.414 275.145 175.59 278.038C170.131 280.352 166.608 277.275 165.528 275.448C162.695 276.268 157.208 276.096 157.93 268.843Z" fill="#EFDDA2"/>
<path d="M160.142 319.262C152.894 318.496 152.256 323.565 152.844 326.196C144.818 326.577 146.347 332.976 148.114 336.128C145.726 334.508 146.709 337.582 148.262 339.242C153.741 345.1 161.341 344.515 165.559 338.421C168.933 333.545 166.636 329.471 165.066 328.043C166.445 325.435 167.39 320.027 160.142 319.262Z" fill="#FFF3CA"/>
<path d="M107.119 146.292C107.036 139.004 112.142 138.843 114.706 139.674C115.837 131.72 122.065 133.841 125.038 135.896C123.649 133.366 126.617 134.633 128.124 136.334C133.443 142.338 132.149 149.85 125.687 153.479C120.517 156.382 116.675 153.713 115.4 152.016C112.675 153.145 107.202 153.579 107.119 146.292Z" fill="#FFF3CA"/>
<path d="M137.231 223.01C129.983 222.244 129.345 227.314 129.932 229.944C121.907 230.325 123.435 236.724 125.203 239.876C122.814 238.256 123.798 241.33 125.35 242.99C130.829 248.848 138.429 248.263 142.647 242.169C146.022 237.293 143.725 233.219 142.155 231.791C143.534 229.183 144.479 223.775 137.231 223.01Z" fill="#FFF3CA"/>
<path d="M79.854 362.32C72.606 361.554 71.9682 366.624 72.5553 369.254C64.5298 369.635 66.0584 376.034 67.8259 379.186C65.4375 377.566 66.4209 380.64 67.9734 382.3C73.4525 388.158 81.0525 387.573 85.2705 381.479C88.6449 376.604 86.3482 372.529 84.778 371.101C86.1567 368.493 87.1021 363.085 79.854 362.32Z" fill="#FFF3CA"/>
<path d="M166.52 348.329C155.762 347.193 154.816 354.717 155.687 358.621C143.776 359.186 146.044 368.684 148.668 373.362C145.123 370.958 146.582 375.52 148.887 377.983C157.019 386.678 168.298 385.81 174.559 376.765C179.567 369.529 176.158 363.481 173.828 361.362C175.874 357.491 177.277 349.465 166.52 348.329Z" fill="#FFF3CA"/>
<path d="M99.7651 390.274C89.6042 392.42 86.3048 401.314 85.9253 405.493C83.5921 408.932 86.0289 410.111 87.5389 410.27C88.5969 417.848 93.1548 419.018 98.9032 423.253C104.652 427.487 114.718 420.422 118.689 416.419C122.659 412.417 120.173 403.867 120.009 400.408C119.845 396.948 112.466 387.591 99.7651 390.274Z" fill="#FFF3CA"/>
<path d="M163.033 404.002C152.872 406.149 149.573 415.043 149.193 419.221C146.86 422.661 149.297 423.839 150.807 423.999C151.865 431.576 156.423 432.747 162.171 436.982C167.92 441.216 177.986 434.151 181.957 430.148C185.927 426.146 183.441 417.596 183.277 414.137C183.113 410.677 175.734 401.319 163.033 404.002Z" fill="#FFF3CA"/>
<path d="M96.6371 339.168C90.7072 336.953 86.028 342.099 84.4296 344.948C84.0016 343.235 78.8288 343.827 76.9339 347.731C72.5378 356.788 79.9629 360.416 81.3795 361.042C86.9778 376.725 102.579 369.397 104.441 364.801C105.931 361.125 102.471 357.383 100.555 355.971C101.813 355.68 104.44 354.539 104.888 352.298C105.336 350.058 103.604 349.586 102.681 349.629C103.137 347.065 102.567 341.383 96.6371 339.168Z" fill="#FFF3CA"/>
<path d="M83.7133 413.9C85.3302 405.976 77.9072 401.094 73.9935 399.643C76.0705 398.762 74.2954 392.352 68.9924 390.737C56.6896 386.988 53.5866 397.08 53.0778 398.992C34.3985 409.173 46.746 427.405 52.9156 428.842C57.8513 429.991 61.8863 424.881 63.2868 422.183C63.9037 423.712 65.8665 426.8 68.7827 426.921C71.6989 427.042 71.9509 424.761 71.7124 423.606C75.039 423.672 82.0964 421.823 83.7133 413.9Z" fill="#FFF3CA"/>
<path d="M133.551 278.162C133.608 276.589 135.147 272.795 140.032 272.625C144.15 272.483 147.078 275.956 146.311 278.827C146.61 281.692 145.05 282.532 143.333 284.6C141.615 286.668 137.297 284.998 135.483 283.894C133.669 282.791 133.503 279.465 133.551 278.162Z" fill="#EFDDA2"/>
<path d="M180.933 232.452C183.117 226.297 185.814 228.64 185.814 228.64C185.814 228.64 189.865 221.742 197.969 225.002C207.303 228.758 204.059 240.567 201.39 240.763C199.447 240.906 201.852 242.321 199.623 247.537C197.841 251.71 191.554 251.458 189.578 249.042C185.465 248.193 185.427 245.663 186.467 244.219C182.906 243.532 178.356 239.715 180.933 232.452Z" fill="#EFDDA2"/>
<path d="M98.9375 330.865C101.121 324.71 103.818 327.053 103.818 327.053C103.818 327.053 107.869 320.155 115.973 323.416C125.307 327.172 122.063 338.98 119.394 339.176C117.451 339.319 119.856 340.735 117.628 345.95C115.845 350.123 109.558 349.871 107.582 347.455C103.469 346.607 103.431 344.077 104.471 342.632C100.91 341.945 96.36 338.129 98.9375 330.865Z" fill="#EFDDA2"/>
<path d="M164.071 133.789C166.255 127.634 168.952 129.977 168.952 129.977C168.952 129.977 173.003 123.079 181.106 126.339C190.441 130.095 187.197 141.904 184.527 142.1C182.585 142.243 184.99 143.658 182.761 148.874C180.979 153.046 174.692 152.795 172.716 150.379C168.603 149.53 168.565 147 169.605 145.556C166.043 144.869 161.494 141.052 164.071 133.789Z" fill="#EFDDA2"/>
<path d="M130.089 312.447C131.858 307.053 134.25 309.032 134.25 309.032C134.25 309.032 137.626 302.954 144.736 305.617C152.925 308.685 150.354 319.014 148.039 319.24C146.353 319.405 148.473 320.585 146.646 325.164C145.184 328.827 139.717 328.74 137.948 326.682C134.357 326.031 134.271 323.833 135.144 322.556C132.035 322.034 128.002 318.813 130.089 312.447Z" fill="#EFDDA2"/>
<path d="M130.081 619.93V416.013L251.736 397.475L204.204 597.222C203.51 600.138 201.244 602.422 198.333 603.138L130.081 619.93Z" fill="white"/>
<path d="M130.081 619.93V416.013L8.42614 397.475L55.534 595.44C56.4882 599.451 59.6044 602.591 63.6072 603.575L130.081 619.93Z" fill="#D2D2D2"/>
<mask id="mask0_1028_1864" style="mask-type:alpha" maskUnits="userSpaceOnUse" x="8" y="397" width="123" height="224">
<path d="M130.081 620.165V416.248L8.42614 397.71L57.0881 602.206L130.081 620.165Z" fill="#D2D2D2"/>
</mask>
<g mask="url(#mask0_1028_1864)">
<path d="M56.7895 396.892L87.1507 619.068L73.223 617.155L32.023 392.983L56.7895 396.892Z" fill="#C61D41"/>
<path d="M107.392 397.86L115.375 624.266L101.504 622.161L82.733 393.61L107.392 397.86Z" fill="#C61D41"/>
</g>
<mask id="mask1_1028_1864" style="mask-type:alpha" maskUnits="userSpaceOnUse" x="130" y="397" width="122" height="224">
<path d="M130.081 620.165V416.248L251.736 397.71L203.074 602.207L130.081 620.165Z" fill="white"/>
</mask>
<g mask="url(#mask1_1028_1864)">
<path d="M219.462 396.55L181.193 616.686L193.905 615.477L242.091 393.893L219.462 396.55Z" fill="#FF335F"/>
<path d="M175.937 395.47L154.875 620.66L167.587 619.45L198.566 392.813L175.937 395.47Z" fill="#FF335F"/>
<path d="M130.16 394.334L128.474 624.263L141.542 623.062L153.423 391.692L130.16 394.334Z" fill="#FF335F"/>
</g>
<path d="M122.633 24C125.797 15.4992 119.883 13.1634 116.531 13.058C118.552 3.26562 110.365 3.13004 106.019 4.28631C108.711 1.90806 104.701 2.14336 102.22 3.50177C93.4648 8.29579 91.8201 17.6382 97.8628 24.6069C102.697 30.1818 108.319 28.6727 110.526 27.2213C113.244 29.6895 119.47 32.5008 122.633 24Z" fill="#FFF3CA"/>
<path d="M66.2743 399.15L70.4189 362.46L80.4845 396.783L107.129 378.438L91.1422 403.292L128.444 416.903L89.958 415.719L100.024 450.042L76.3399 422.229L60.3534 453.001L63.3138 422.229L32.525 425.78L60.9455 408.026L37.2617 384.948L66.2743 399.15Z" fill="white"/>
<path d="M162.749 301.31L166.894 264.62L176.96 298.943L203.604 280.598L187.617 305.452L224.919 319.063L186.433 317.88L196.499 352.202L172.815 324.389L156.828 355.161L159.789 324.389L129 327.94L157.42 310.187L133.737 287.108L162.749 301.31Z" fill="white"/>
<path d="M268.62 649.455C268.62 652.94 265.795 655.239 262.31 655.239C258.825 655.239 256 652.414 256 648.929C256 645.445 258.825 642.62 262.31 642.62C265.795 642.62 268.62 645.97 268.62 649.455Z" fill="#97C2D1"/>
</svg>
