<svg width="149" height="96" viewBox="0 0 149 96" fill="none" xmlns="http://www.w3.org/2000/svg">
<path id="Subtract" d="M141.184 0.456054C145.109 0.456054 148.291 3.62944 148.291 7.54401L148.291 39.124C143.319 39.124 139.288 43.1436 139.288 48.1021C139.288 53.0605 143.319 57.0801 148.291 57.0801L148.291 88.8192C148.291 92.7338 145.109 95.9071 141.184 95.9071L8.03571 95.9071C4.11032 95.9071 0.928167 92.7337 0.928167 88.8192L0.92817 57.0801C5.90033 57.0801 9.93106 53.0605 9.93106 48.102C9.93106 43.1436 5.90033 39.124 0.928171 39.124L0.928174 7.54399C0.928175 3.62943 4.11033 0.456042 8.03572 0.456042L141.184 0.456054Z" fill="#FF335F"/>
</svg>
